<?xml version="1.0" standalone="no"?><!DOCTYPE svg PUBLIC "-//W3C//DTD SVG 1.1//EN" "http://www.w3.org/Graphics/SVG/1.1/DTD/svg11.dtd"><svg t="1559469925441" class="icon" style="" viewBox="0 0 1024 1024" version="1.1" xmlns="http://www.w3.org/2000/svg" p-id="1710" xmlns:xlink="http://www.w3.org/1999/xlink" width="200" height="200"><defs><style type="text/css"></style></defs><path d="M512 64.050782c60.495816 0 119.153774 11.836583 174.345794 35.181267 53.335742 22.558785 101.245915 54.864562 142.401244 96.01989s73.461105 89.066525 96.01989 142.401244c23.344684 55.19202 35.181267 113.851001 35.181267 174.345794 0 60.494793-11.836583 119.153774-35.181267 174.345793-22.558785 53.334719-54.864562 101.245915-96.01989 142.401244s-89.066525 73.461105-142.401244 96.019891c-55.19202 23.344684-113.851001 35.181267-174.345794 35.181267s-119.153774-11.836583-174.345794-35.181267c-53.335742-22.558785-101.245915-54.864562-142.401244-96.019891S121.791857 739.679489 99.233072 686.34477c-23.344684-55.19202-35.181267-113.851001-35.181267-174.345793 0-60.495816 11.836583-119.153774 35.181267-174.345794 22.558785-53.335742 54.864562-101.245915 96.01989-142.401244s89.066525-73.461105 142.401244-96.01989c55.19202-23.344684 113.849978-35.181267 174.345794-35.181267m0-51.16531c-275.653107 0-499.114528 223.461421-499.114528 499.114528S236.346893 1011.114528 512 1011.114528s499.114528-223.461421 499.114528-499.114528S787.653107 12.885472 512 12.885472z" fill="#808080" p-id="1711"></path><path d="M382.007367 433.921737v305.017902h-101.567233V433.921737h101.567233z m6.461155-94.200452c0.210801 14.984273-4.970198 27.499307-15.542998 37.546128-10.571776 10.04682-24.473391 15.07637-41.702797 15.089673h-0.609891c-16.823154 0-30.368658-5.030573-40.638559-15.089673-10.269901-10.0591-15.398712-22.574135-15.384385-37.546128 0-15.180747 5.285377-27.748994 15.857153-37.703717s24.37413-14.931061 41.407062-14.931061 30.677697 4.977361 40.934294 14.931061 15.489786 22.522969 15.699564 37.703717h-0.019443z m358.894974 224.391606v174.828795h-101.271498V575.813375c0-21.550829-4.15667-38.426171-12.468986-50.626028-8.31334-12.199856-21.293979-18.306948-38.944988-18.319228-12.923334 0-23.743774 3.539616-32.464389 10.617826-8.720615 7.078209-15.233959 15.851013-19.541055 26.317388-2.25946 6.15928-3.388167 14.47262-3.388167 24.938996v170.218799h-101.272521c0.407276-81.869612 0.60989-148.247392 0.60989-199.136409s-0.105401-81.257675-0.315178-91.106998l-0.315178-14.774495h101.272521v44.322462h-0.60989c4.110621-6.566556 8.319479-12.311397 12.627598-17.23657 4.307096-4.925173 10.105149-10.256598 17.394159-15.995299s16.21224-10.204409 26.770713-13.395078c10.558473-3.191692 22.305005-4.780887 35.240619-4.76656 35.091216 0 63.305815 11.642155 84.645842 34.926464s32.011064 57.396221 32.011065 102.335736l0.019443-0.02149z" fill="#808080" p-id="1712"></path></svg>